<svg width="42" height="41" viewBox="0 0 42 41" fill="none" xmlns="http://www.w3.org/2000/svg">
<mask id="mask0_63_239" style="mask-type:alpha" maskUnits="userSpaceOnUse" x="0" y="0" width="42" height="41">
<g clip-path="url(#clip0_63_239)">
<path d="M34.7972 5.43993C34.98 5.65594 35.3032 5.68276 35.5191 5.49985C35.735 5.31693 35.7618 4.99354 35.5789 4.77755L34.7972 5.43993ZM21.5464 2.09059L21.3321 1.62509L21.3305 1.62582L21.5464 2.09059ZM17.3775 2.09255L17.5933 1.62778L17.5917 1.62699L17.3775 2.09255ZM32.2734 29.0138C32.3226 28.735 32.1366 28.4692 31.8579 28.4201C31.5794 28.3709 31.3138 28.557 31.2646 28.8358L32.2734 29.0138ZM37.3029 11.0779C37.3391 11.3587 37.5961 11.5568 37.8765 11.5204C38.1571 11.4841 38.3551 11.2271 38.3188 10.9464L37.3029 11.0779ZM19.4598 7.90366L19.4679 7.39122C19.4625 7.39114 19.4571 7.39114 19.4517 7.39122L19.4598 7.90366ZM14.6813 6.77609L14.9179 6.32159C14.6673 6.19092 14.3583 6.28808 14.2274 6.53869C14.0964 6.78929 14.1931 7.09865 14.4434 7.22997L14.6813 6.77609ZM24.2316 6.76693L24.4694 7.22081C24.7198 7.08948 24.8165 6.78013 24.6856 6.52952C24.5547 6.2789 24.2456 6.18176 23.9949 6.31241L24.2316 6.76693ZM21.7603 2.55623C26.2636 0.484536 31.6038 1.66655 34.7972 5.43993L35.5789 4.77755C32.0872 0.65168 26.2517 -0.638104 21.3321 1.62509L21.7603 2.55623ZM17.1616 2.55732C18.6186 3.23479 20.3062 3.23239 21.7623 2.55536L21.3305 1.62582C20.1473 2.176 18.7757 2.17753 17.5933 1.62778L17.1616 2.55732ZM4.1224 5.43993C7.3157 1.66673 12.66 0.486396 17.1635 2.5582L17.5917 1.62699C12.6723 -0.6361 6.83257 0.651493 3.34065 4.77755L4.1224 5.43993ZM3.49415 18.6943C0.673823 14.6409 0.930528 9.21155 4.1224 5.43993L3.34065 4.77755C-0.151048 8.90347 -0.43297 14.8442 2.65288 19.279L3.49415 18.6943ZM7.65495 28.8357C7.01954 25.1966 5.59985 21.737 3.49415 18.6943L2.65213 19.278C4.6736 22.1989 6.03606 25.5197 6.64588 29.0123L7.65495 28.8357ZM11.0269 39.4625C10.1582 39.4625 9.41633 38.8421 9.26494 37.996L8.25659 38.1768C8.49617 39.5156 9.66639 40.4875 11.0269 40.4875V39.4625ZM14.5969 37.9163C14.4818 38.7982 13.725 39.4616 12.8252 39.4625L12.8257 40.4875C14.2336 40.4862 15.4303 39.4469 15.6126 38.0489L14.5969 37.9163ZM15.8711 28.1622L14.5969 37.9163L15.6126 38.0489L16.8868 28.2953L15.8711 28.1622ZM18.6703 25.714C17.2561 25.7167 16.0571 26.7618 15.8711 28.1622L16.8867 28.2965C17.0046 27.4089 17.7657 26.7407 18.6714 26.739L18.6703 25.714ZM20.2492 25.714H18.6703V26.739H20.2492V25.714ZM23.0505 28.1603C22.8638 26.7598 21.6652 25.7167 20.2503 25.714L20.2492 26.739C21.1564 26.7407 21.9168 27.4087 22.0352 28.2959L23.0505 28.1603ZM24.3182 37.9158L23.0507 28.162L22.035 28.2942L23.3023 38.048L24.3182 37.9158ZM26.0916 39.4625C25.191 39.4625 24.4331 38.7988 24.3182 37.9158L23.3023 38.048C23.4844 39.4479 24.6825 40.4875 26.0916 40.4875V39.4625ZM27.8895 39.4625H26.0916V40.4875H27.8895V39.4625ZM29.6505 37.9972C29.5 38.8433 28.7584 39.4625 27.8895 39.4625V40.4875C29.249 40.4875 30.4204 39.518 30.6591 38.1769L29.6505 37.9972ZM30.6591 38.1769L32.2734 29.0138L31.2646 28.8358L29.6505 37.9972L30.6591 38.1769ZM27.8882 40.4875C29.2551 40.4907 30.4245 39.5221 30.6594 38.1751L29.6502 37.9989C29.5023 38.8478 28.7653 39.4646 27.8906 39.4625L27.8882 40.4875ZM23.3026 38.0501C23.4903 39.4499 24.6753 40.4857 26.0916 40.4875V39.4625C25.1858 39.4614 24.4372 38.8031 24.3179 37.9137L23.3026 38.0501ZM20.2492 26.739C21.1502 26.739 21.9194 27.412 22.035 28.2942L23.0507 28.162C22.8676 26.7636 21.6585 25.714 20.2492 25.714V26.739ZM16.8868 28.2953C17.0024 27.4137 17.7713 26.7398 18.6714 26.739L18.6703 25.714C17.2618 25.7153 16.0543 26.7656 15.8711 28.1622L16.8868 28.2953ZM12.8267 40.4875C14.2415 40.4847 15.4262 39.4497 15.6124 38.0503L14.597 37.915C14.479 38.8025 13.7305 39.4608 12.8252 39.4625L12.8267 40.4875ZM8.2563 38.1751C8.49249 39.5193 9.66176 40.4911 11.0282 40.4875L11.0254 39.4625C10.1529 39.4649 9.41433 38.8463 9.26523 37.9977L8.2563 38.1751ZM6.64588 29.0123L8.2563 38.1751L9.26523 37.9977L7.65495 28.8357L6.64588 29.0123ZM2.65288 19.279C4.67426 22.1963 6.0349 25.5216 6.64588 29.0123L7.65495 28.8357C7.01849 25.1993 5.60046 21.734 3.49415 18.6943L2.65288 19.279ZM3.34065 4.77755C-0.156755 8.90847 -0.439788 14.8397 2.65288 19.279L3.49341 18.6931C0.666885 14.6358 0.924822 9.21671 4.1224 5.43993L3.34065 4.77755ZM17.5917 1.62699C12.6687 -0.640142 6.83618 0.648851 3.34065 4.77755L4.1224 5.43993C7.31964 1.66354 12.657 0.482844 17.1635 2.5582L17.5917 1.62699ZM21.3278 1.62706C20.1478 2.18402 18.7751 2.1855 17.596 1.62902L17.159 2.55608C18.6157 3.24356 20.3091 3.24123 21.7649 2.55412L21.3278 1.62706ZM32.1973 1.99634C28.8413 0.154941 24.8087 0.0229953 21.3321 1.62509L21.7603 2.55623C24.9439 1.08919 28.635 1.21075 31.7047 2.89508L32.1973 1.99634ZM38.3188 10.9464C37.8295 7.16243 35.5549 3.83832 32.1973 1.99634L31.7047 2.89508C34.7769 4.58056 36.8557 7.62058 37.3029 11.0779L38.3188 10.9464ZM14.4434 7.22997C15.9797 8.03604 17.7209 8.4463 19.4687 8.41608L19.4517 7.39122C17.8738 7.4185 16.3018 7.04764 14.9191 6.32221L14.4434 7.22997ZM19.4517 7.39122C17.8705 7.41631 16.308 7.04624 14.9179 6.32159L14.4446 7.2306C15.9862 8.03429 17.7179 8.44385 19.4687 8.41608L19.4517 7.39122ZM23.9949 6.31241C22.6029 7.03811 21.0468 7.41628 19.4679 7.39122L19.4517 8.4161C21.2047 8.44391 22.9286 8.02408 24.4683 7.22143L23.9949 6.31241ZM19.4517 8.4161C21.2016 8.44635 22.9352 8.02583 24.4694 7.22081L23.9937 6.31304C22.6091 7.03952 21.0436 7.41846 19.4679 7.39122L19.4517 8.4161ZM12.8252 39.4625H11.0269V40.4875H12.8257L12.8252 39.4625Z" fill="#0F5E67"/>
<path d="M24.0732 17.9375C28.8821 17.9375 32.7805 14.2662 32.7805 9.73749C32.7805 14.2662 36.6789 17.9375 41.4878 17.9375C36.6789 17.9375 32.7805 21.6087 32.7805 26.1375C32.7805 21.6087 28.8821 17.9375 24.0732 17.9375Z" fill="white"/>
<path d="M33.2927 9.73751C33.2927 9.45446 33.0633 9.22501 32.7805 9.22501C32.4977 9.22501 32.2683 9.45446 32.2683 9.73751H33.2927ZM24.0732 17.425C23.7903 17.425 23.561 17.6545 23.561 17.9375C23.561 18.2205 23.7903 18.45 24.0732 18.45V17.425ZM41.4878 18.45C41.7706 18.45 42 18.2205 42 17.9375C42 17.6545 41.7706 17.425 41.4878 17.425V18.45ZM32.2683 26.1375C32.2683 26.4205 32.4977 26.65 32.7805 26.65C33.0633 26.65 33.2927 26.4205 33.2927 26.1375H32.2683ZM32.2683 9.73751C32.2683 13.9544 28.6289 17.425 24.0732 17.425V18.45C29.1353 18.45 33.2927 14.5781 33.2927 9.73751H32.2683ZM32.2683 9.73751C32.2683 14.5781 36.4257 18.45 41.4878 18.45V17.425C36.932 17.425 33.2927 13.9544 33.2927 9.73751H32.2683ZM33.2927 26.1375C33.2927 21.2969 29.1353 17.425 24.0732 17.425V18.45C28.6289 18.45 32.2683 21.9207 32.2683 26.1375H33.2927ZM33.2927 26.1375C33.2927 21.9207 36.932 18.45 41.4878 18.45V17.425C36.4257 17.425 32.2683 21.2969 32.2683 26.1375H33.2927Z" fill="#0F5E67"/>
</g>
</mask>
<g mask="url(#mask0_63_239)">
<rect x="-26" y="-43" width="129" height="112" fill="#0062F5"/>
</g>
<defs>
<clipPath id="clip0_63_239">
<rect width="42" height="41" fill="white"/>
</clipPath>
</defs>
</svg>
