<svg width="30" height="40" viewBox="0 0 30 40" fill="none" xmlns="http://www.w3.org/2000/svg">
<path d="M16.8516 39C20.8594 33.9844 30 21.8281 30 15C30 6.71875 23.2812 0 15 0C6.71875 0 0 6.71875 0 15C0 21.8281 9.14062 33.9844 13.1484 39C14.1094 40.1953 15.8906 40.1953 16.8516 39ZM15 10C16.3261 10 17.5979 10.5268 18.5355 11.4645C19.4732 12.4021 20 13.6739 20 15C20 16.3261 19.4732 17.5979 18.5355 18.5355C17.5979 19.4732 16.3261 20 15 20C13.6739 20 12.4021 19.4732 11.4645 18.5355C10.5268 17.5979 10 16.3261 10 15C10 13.6739 10.5268 12.4021 11.4645 11.4645C12.4021 10.5268 13.6739 10 15 10Z" fill="#0062F5"/>
</svg>
