<svg width="40" height="40" viewBox="0 0 40 40" fill="none" xmlns="http://www.w3.org/2000/svg">
<path d="M12.8822 1.92355C12.2807 0.470491 10.6948 -0.302913 9.17928 0.111132L2.30459 1.98605C0.945271 2.36103 0 3.59535 0 5.00154C0 24.3288 15.6712 40 34.9985 40C36.4046 40 37.639 39.0547 38.014 37.6954L39.8889 30.8207C40.3029 29.3052 39.5295 27.7193 38.0764 27.1178L30.5768 23.9929C29.3034 23.4617 27.8269 23.8288 26.9597 24.8991L23.8036 28.7505C18.3039 26.149 13.851 21.6961 11.2495 16.1964L15.1009 13.0481C16.1712 12.1731 16.5383 10.7044 16.0071 9.43103L12.8822 1.93136V1.92355Z" fill="#0062F5"/>
</svg>
